<svg version="1.0" xmlns="http://www.w3.org/2000/svg" width="320" height="320" viewBox="0 0 240 240"><path d="M99 2.1C88 4.9 81.3 8.6 73.9 16 63.3 26.5 59 37.2 59 53.5c0 8.6-2.1 29.4-10.6 107-4.5 40.2-4.7 48.4-1.7 54 6 11.3 21.4 20 42.6 24 12.3 2.3 51.3 2.1 63.2-.4 30-6.4 45.2-20.1 43.1-39-.4-3.1-2-18-3.6-33.1-1.6-15.1-4.7-44.3-7-64.9-2.2-20.6-4-41.4-4-46.2 0-17.2-4.3-28.4-14.9-39-7.4-7.3-14-10.9-25.8-14-10.5-2.6-30.7-2.6-41.3.2zm25.3 16c-.8 2.9 2 4.9 6.8 4.9 5.1 0 6.9-.8 6.9-3.2 0-1.5.4-1.8 2.3-1.2 12.5 3.9 22.4 15.4 24.2 28.4.9 6.5-1.6 9.9-10.3 14.3-17.3 8.6-50.9 8.9-67.7.5-11.3-5.7-13-9.4-9.6-20.6 3-10.1 10.8-18.1 21.4-22.1 2.3-.9 2.9-.8 3.4.7 1 2.5 2.3 3.2 6.9 3.2 5 0 7.9-1.9 7.1-4.9-.5-1.9-.1-2.1 4.3-2.1 4.4 0 4.8.2 4.3 2.1zM86 75.8c3.6 1.8 9.9 4 14 4.8 9.9 2.1 30.1 2.1 40 0 9.6-2 19.8-7.1 22.6-11.4l2.2-3.2.6 3.7c1.3 8.4 13.8 126.2 13.9 131.7.2 5.7.1 5.9-4.5 10.1-5.3 4.8-14 8.4-27 11.2-6.6 1.4-12.6 1.8-29.3 1.7-19.4-.1-21.7-.3-31-2.7-5.5-1.5-12.3-3.8-15.2-5.2-5.3-2.7-12.3-9.4-12.3-12C60 202.3 73.9 73 74.6 69.2l.5-3.3 2.2 3.3c1.4 2 4.8 4.6 8.7 6.6z"/></svg>